<svg xmlns="http://www.w3.org/2000/svg" viewBox="0 0 370.1 144.8">
<path d="M12.9 11.9c0 2.2 1 4.1 2.6 5.4l37.7 37.6c1.3 1.6 3.2 2.6 5.4 2.6s4.1-1 5.4-2.6l26.6-26.6v61.1c0 3.8 3.1 6.8 6.8 6.8 3.8 0 6.8-3.1 6.8-6.8V11.9c0-3.8-3.1-6.8-6.8-6.8-2.2 0-4.1 1-5.4 2.6L58.6 41 25.2 7.7C23.9 6.1 22 5 19.8 5c-3.8 0-6.9 3.1-6.9 6.9zM104.2 132.9c0-2.2-1-4.1-2.6-5.4L64 89.8c-1.3-1.6-3.2-2.6-5.4-2.6s-4.1 1-5.4 2.6l-26.6 26.6V55.3c0-3.8-3.1-6.8-6.8-6.8S13 51.6 13 55.3v77.6c0 3.8 3.1 6.8 6.8 6.8 2.2 0 4.1-1 5.4-2.6l33.4-33.4L92 137.1c1.3 1.6 3.2 2.6 5.4 2.6 3.7 0 6.8-3.1 6.8-6.8z"/><g><path d="M136.5 21.9h5.2V63h25.8v4.8h-31V21.9zM211.9 48.2c0 3.4-.5 6.3-1.4 8.9-.9 2.5-2.2 4.7-3.9 6.4-1.7 1.7-3.7 3-6 3.8-2.3.9-5 1.3-7.8 1.3s-5.4-.4-7.8-1.3c-2.3-.9-4.3-2.1-6-3.8-1.7-1.7-3-3.8-3.9-6.3-.9-2.5-1.4-5.4-1.4-8.6V21.9h5.2v26.4c0 5 1.2 8.8 3.7 11.5 2.5 2.7 5.9 4 10.3 4 4.2 0 7.6-1.3 10.1-3.8s3.7-6.3 3.7-11.3V21.9h5.2v26.3zM256.4 63.8c-1.3 1-2.7 1.8-4.2 2.5s-3.1 1.2-4.8 1.6c-1.7.4-3.6.6-5.7.6-3.3 0-6.4-.6-9.2-1.8s-5.2-2.9-7.3-5c-2.1-2.1-3.7-4.6-4.8-7.5-1.2-2.9-1.7-6-1.7-9.3 0-3.3.6-6.4 1.7-9.2 1.2-2.9 2.8-5.4 4.8-7.6 2.1-2.2 4.5-3.9 7.3-5.1 2.8-1.2 5.9-1.9 9.3-1.9 2.1 0 4 .2 5.7.5 1.7.3 3.2.8 4.7 1.5 1.4.6 2.8 1.4 4 2.3 1.2.9 2.4 1.9 3.5 3l-3.5 3.8c-2-1.8-4.1-3.3-6.3-4.5-2.3-1.2-5-1.8-8.1-1.8-2.5 0-4.9.5-7 1.4-2.2 1-4 2.3-5.6 4-1.6 1.7-2.8 3.7-3.7 6-.9 2.3-1.3 4.8-1.3 7.4 0 2.7.4 5.2 1.3 7.5s2.1 4.3 3.7 6c1.6 1.7 3.5 3 5.6 4 2.2 1 4.5 1.5 7 1.5 3.1 0 5.9-.6 8.1-1.7 2.3-1.2 4.5-2.8 6.7-4.9l3.4 3.3c-1.1 1.3-2.3 2.4-3.6 3.4zM306.2 67.8h-6.5l-17.6-22.2-9.8 9.9v12.3h-5.2V21.9h5.2v27.4l26.4-27.4h6.7L285.7 42l20.5 25.8zM336.3 67.8h-5.2V49.6L312 21.9h6.3l15.4 22.9 15.6-22.9h6l-19.1 27.7v18.2z"/><g><path d="M172.7 123.6V93.4l-13 19.8h-.3l-12.9-19.6v30h-10.1V77.4h11L159.6 97l12.2-19.6h11v46.3h-10.1zM193.9 123.6V77.4h34.9v9.1H204v9.4h21.8v9.1H204v9.7h25.1v9.1h-35.2zM279.1 109.6c-1.2 2.8-2.9 5.3-5.1 7.3-2.2 2.1-4.8 3.7-7.8 4.9-3 1.2-6.3 1.8-10 1.8h-18.1V77.4h18.1c3.6 0 6.9.6 10 1.8 3 1.2 5.6 2.8 7.8 4.9 2.2 2.1 3.9 4.5 5.1 7.3 1.2 2.8 1.8 5.8 1.8 9.1v.1c-.1 3.2-.7 6.2-1.8 9zm-8.9-9.1c0-2-.3-3.9-1-5.6-.7-1.7-1.6-3.2-2.8-4.4-1.2-1.2-2.7-2.2-4.4-2.9-1.7-.7-3.6-1-5.7-1h-7.9v27.9h7.9c2.1 0 4-.3 5.7-1 1.7-.7 3.2-1.6 4.4-2.8 1.2-1.2 2.2-2.7 2.8-4.4.7-1.7 1-3.5 1-5.6v-.2zM289.6 123.6V77.4h10.2v46.3h-10.2zM346.6 123.6l-4.2-10.4h-19.6l-4.2 10.4h-10.4L328 77h9.4l19.8 46.6h-10.6zm-14-34.3l-6.2 15h12.3l-6.1-15z"/></g></g></svg>
