<svg xmlns="http://www.w3.org/2000/svg" fill="none" viewBox="0 0 70 10">
  <path fill="#CB605A" d="M.8 4a.22.22 0 01.2-.28l3.3-1.49c.14-.07.23 0 .23.15v.13a.22.22 0 01-.16.23L1.5 4l2.87 1.25a.22.22 0 01.16.23v.13c0 .16-.09.21-.23.16L1 4.28A.24.24 0 01.8 4z"/>
  <path fill="#354551" d="M6.1 2.69h-.35a.18.18 0 01-.2-.2v-.06a.18.18 0 01.2-.21h.36v-1a.19.19 0 01.2-.22h.15a.18.18 0 01.2.21v1h.84a.19.19 0 01.21.21v.07a.18.18 0 01-.21.2h-.84v2.08c0 1 .59 1.07.91 1.09.17 0 .22.07.22.21v.11c0 .13-.07.2-.23.2A1.37 1.37 0 016.1 4.85V2.69zM10.32 2.09c1.11 0 1.74.8 1.74 2a.21.21 0 01-.21.21h-3a1.58 1.58 0 001.61 1.66 1.78 1.78 0 001.09-.38.17.17 0 01.27 0l.07.1a.188.188 0 01.028.148.19.19 0 01-.088.122 2.37 2.37 0 01-1.39.46 2.1 2.1 0 01-2.17-2.14 2 2 0 012.05-2.18zm1.17 1.77a1.19 1.19 0 00-1.19-1.31 1.43 1.43 0 00-1.42 1.31h2.61zM14.94 2.09c.5-.006.988.16 1.38.47a.18.18 0 010 .28l-.06.09C16.21 3 16.12 3 16 3a1.71 1.71 0 00-1-.38 1.6 1.6 0 00-1.62 1.68A1.6 1.6 0 0015 5.94a1.82 1.82 0 001.17-.44.16.16 0 01.27 0l.06.08a.2.2 0 010 .28 2.31 2.31 0 01-1.48.53 2.1 2.1 0 01-2.18-2.17 2.12 2.12 0 012.1-2.13zM17.44.74a.181.181 0 01.117-.201.18.18 0 01.083-.009h.16a.19.19 0 01.2.21v2.07c.011.113.011.227 0 .34a1.83 1.83 0 011.66-1.07c1 0 1.4.59 1.4 1.61v2.45a.18.18 0 01-.2.21h-.16a.19.19 0 01-.21-.21V3.85c0-.65-.1-1.23-.91-1.23A1.61 1.61 0 0018 4.34v1.8a.19.19 0 01-.21.21h-.16a.18.18 0 01-.2-.21l.01-5.4zM22.09 2.48a.31.31 0 01.35-.35h.36a.31.31 0 01.35.35v2.14c0 .51.13.86.65.86A1.27 1.27 0 0025 4.06V2.48a.31.31 0 01.35-.35h.36a.31.31 0 01.35.35V6a.31.31 0 01-.35.35h-.32A.3.3 0 0125 6v-.25a1.205 1.205 0 010-.19 1.64 1.64 0 01-1.46.88c-.9 0-1.46-.45-1.46-1.6l.01-2.36zM27.06 2.48a.309.309 0 01.209-.337.31.31 0 01.141-.013h.26c.22 0 .34.12.34.29v.36A1.51 1.51 0 0129.37 2a2 2 0 011.88 2.21 2.001 2.001 0 01-1.93 2.21 1.37 1.37 0 01-1.22-.62c.009.12.009.24 0 .36v1.49a.31.31 0 01-.35.35h-.36a.31.31 0 01-.35-.35l.02-5.17zm2.07 3.08c.58 0 1.06-.47 1.06-1.31 0-.84-.43-1.32-1-1.32-.57 0-1.07.4-1.07 1.33a1.159 1.159 0 001.01 1.3z"/>
  <path fill="#CB605A" d="M33.84.38a.22.22 0 01.23-.17h.12a.16.16 0 01.17.23l-2 6.08a.22.22 0 01-.23.17H32a.16.16 0 01-.17-.23L33.84.38zM35.47 5.48a.22.22 0 01.16-.23L38.5 4l-2.87-1.26a.22.22 0 01-.16-.23v-.13c0-.15.09-.21.23-.15L39 3.72a.22.22 0 01.16.23V4a.24.24 0 01-.16.24l-3.3 1.52c-.14.07-.23 0-.23-.15v-.13z"/>
</svg>